# xmcd
#
# Track frame offsets:
#	160
#	13743
#	29236
#	52427
#	73630
#	87515
#	103455
#	119526
#	135056
#	154040
#	172972
#	192413
#	212159
#	226051
#	243856
#	261897
#	291269
#	306706
#
# Disc length: 4390 seconds
#
# Revision: 1
# Processed by: cddbd v1.5PL3 Copyright (c) Steve Scherf et al.
# Submitted via: audiograbber 1.83.01
#
DISCID=14112412
DTITLE=Various Artist - Двигай попой! 8. (2000)
DYEAR=1900
DGENRE=
TTITLE0=Karapuzikee. - Коврик прикроватный. (3 шт)
TTITLE1=Supa Няма. - Сало.
TTITLE2=Чугунный скороход. - Милиция!
TTITLE3=Дискотека Авария and Мумий тролль. - Дельфины.
TTITLE4=Natasha. - Баю-бай.
TTITLE5=Ноги вниз! and Старикъ Похабыч. - Кайф белоснежный.
TTITLE6=Найк Борзов and Dj Грув. - Три слова.
TTITLE7=Ахи-вздохи. - Праздник.
TTITLE8=Triplex. - Action.
TTITLE9=Jimmy. - Полнеба.
TTITLE10=Лето. - Понедельник без тебя.
TTITLE11=Пульс. - Маньяки.
TTITLE12=Громозека. - Будем тусоваться.
TTITLE13=Ника and Dj Мик.с. - Ни-фи-га.
TTITLE14=Доцент. - Блондинка.
TTITLE15=Dj Zoomer. - 5.
TTITLE16=Доминика. - 2000 Мега любовь.
TTITLE17=Демо микс нового альбома проекта Иzюм. - h
EXTD=
EXTT0=
EXTT1=
EXTT2=
EXTT3=
EXTT4=
EXTT5=
EXTT6=
EXTT7=
EXTT8=
EXTT9=
EXTT10=
EXTT11=
EXTT12=
EXTT13=
EXTT14=
EXTT15=
EXTT16=
EXTT17=
PLAYORDER=
